<svg width="64" height="64" viewBox="0 0 64 64" fill="none" xmlns="http://www.w3.org/2000/svg">
<g clip-path="url(#clip0_1472_31819)">
<path d="M64 32C64 49.6731 49.6731 64 32 64C14.3269 64 0 49.6731 0 32C0 14.3269 14.3269 0 32 0C49.6731 0 64 14.3269 64 32Z" fill="#1BC48F"/>
<path fill-rule="evenodd" clip-rule="evenodd" d="M32 59C46.9117 59 59 46.9117 59 32C59 17.0883 46.9117 5 32 5C17.0883 5 5 17.0883 5 32C5 46.9117 17.0883 59 32 59ZM32 64C49.6731 64 64 49.6731 64 32C64 14.3269 49.6731 0 32 0C14.3269 0 0 14.3269 0 32C0 49.6731 14.3269 64 32 64Z" fill="#86F2C8"/>
<path d="M30.9277 43V23.2949H25.8477V19.1289H35.6738V43H30.9277Z" fill="white"/>
</g>
<defs>
<clipPath id="clip0_1472_31819">
<rect width="64" height="64" fill="white"/>
</clipPath>
</defs>
</svg>
